<svg width="160" height="160" viewBox="0 0 160 160" fill="none" xmlns="http://www.w3.org/2000/svg">
<g clip-path="url(#clip0_1942_11708)">
<path d="M7.99172 22C8.63195 22.2489 9.05057 22.5876 9.53558 23.0845C10.214 23.7606 10.9115 24.3953 11.6379 25.014C12.1184 25.4282 12.5893 25.8528 13.0592 26.2802C13.7167 26.8783 14.3759 27.474 15.039 28.0653C15.702 28.6565 16.3612 29.2523 17.0187 29.8503C17.6088 30.3867 18.203 30.9159 18.8078 31.4338C19.5497 32.07 20.2696 32.7305 20.9896 33.3939C21.5177 33.8794 22.0506 34.356 22.5948 34.8215C23.2365 35.3705 23.8615 35.9372 24.4837 36.5106C25.2363 37.2038 25.9976 37.8821 26.7734 38.5463C27.3077 39.008 27.833 39.4806 28.3588 39.953C28.8485 40.3921 29.3428 40.8242 29.8418 41.2514C30.586 41.8911 31.309 42.5545 32.032 43.2205C32.6902 43.8254 33.3593 44.4137 34.0369 44.9942C34.9997 45.8255 35.9512 46.6736 36.88 47.547C37.4351 48.0646 38.0112 48.5532 38.5873 49.0441C39.4822 49.8071 40.3572 50.5901 41.2229 51.3897C41.8693 51.9858 42.5274 52.5639 43.1939 53.1348C44.047 53.8715 44.8828 54.6304 45.7222 55.3844C46.5294 56.1091 47.3372 56.8316 48.1592 57.5374C48.8658 58.145 49.557 58.77 50.247 59.3983C50.8884 59.9811 51.5398 60.5494 52.1965 61.1129C52.65 61.5059 53.0977 61.9057 53.5445 62.3071C54.1212 62.825 54.7012 63.3377 55.2882 63.8426C56.2768 64.6936 57.2468 65.5675 58.2184 66.4401C59.0255 67.1647 59.8334 67.8873 60.6553 68.5931C61.2724 69.1236 61.8781 69.6664 62.4807 70.215C63.0931 70.7722 63.7082 71.3245 64.3334 71.8656C64.4602 71.9759 64.587 72.0861 64.7176 72.1997C64.9725 72.4142 65.2327 72.6217 65.4975 72.8223C65.6258 72.9215 65.7541 73.0207 65.8863 73.1228C66 73.2066 66.1137 73.2903 66.2308 73.3766C67.021 74.2949 67.2729 75.7089 67.6118 76.8752C67.9166 77.923 68.2442 78.9601 68.5892 79.9936C69.0439 81.3569 69.4858 82.7245 69.9236 84.0939C69.9573 84.1995 69.9911 84.3051 70.0259 84.4138C70.2019 84.9647 70.3779 85.5156 70.5538 86.0665C70.9243 87.2272 71.2955 88.3876 71.6667 89.548C71.7032 89.6623 71.7398 89.7766 71.7774 89.8943C72.4084 91.8672 73.0416 93.8392 73.6782 95.81C73.7369 95.9918 73.7369 95.9918 73.7967 96.1773C73.9071 96.5193 74.0177 96.8614 74.1283 97.2033C74.1622 97.3083 74.1962 97.4133 74.2311 97.5214C74.411 98.0757 74.5946 98.6283 74.7827 99.1795C74.8226 99.2971 74.8626 99.4147 74.9038 99.5359C74.9799 99.7592 75.0565 99.9823 75.134 100.205C75.3369 100.801 75.4796 101.372 75.5581 102C74.4655 101.265 74.4655 101.265 74.2293 101.106C74.0388 100.978 73.8478 100.851 73.6564 100.725C72.0217 99.6384 70.4258 98.4882 68.8221 97.3519C68.413 97.0621 68.0036 96.7728 67.5942 96.4836C67.4687 96.3945 67.3432 96.3054 67.214 96.2136C67.097 96.131 66.98 96.0484 66.8595 95.9633C66.7572 95.8909 66.6549 95.8184 66.5495 95.7438C65.0379 94.7411 62.8204 95.2866 61.1031 95.423C60.4055 95.4783 59.7077 95.531 59.0099 95.5839C58.8702 95.5945 58.7306 95.6051 58.5867 95.6161C57.412 95.7048 56.237 95.7792 55.0611 95.8484C52.7593 95.9858 50.4593 96.1512 48.1592 96.3186C47.9813 96.3315 47.8035 96.3444 47.6202 96.3576C45.843 96.4865 44.0663 96.6198 42.2908 96.7733C40.0927 96.9628 37.8926 97.1239 35.6924 97.284C35.096 97.3274 34.4996 97.3717 33.9033 97.4162C33.4356 97.4509 32.9678 97.485 32.5 97.5189C32.2802 97.535 32.0603 97.5513 31.8404 97.5678C27.8911 97.8639 27.8911 97.8639 27.0481 97.2615C26.8425 97.1198 26.8425 97.1198 26.6327 96.9753C26.493 96.8726 26.3532 96.7699 26.2092 96.6641C26.0591 96.5593 25.9089 96.4546 25.7542 96.3466C25.4489 96.1336 25.1447 95.9189 24.8415 95.7025C24.2311 95.2697 23.6087 94.8586 22.9853 94.4472C22.7612 94.2976 22.5372 94.1479 22.3132 93.998C21.8685 93.7005 21.4235 93.4034 20.9783 93.1066C20.0135 92.4635 19.049 91.8199 18.0869 91.1723C17.9512 91.0812 17.8154 90.9902 17.6755 90.8964C17.4018 90.7113 17.1293 90.5239 16.8583 90.3343C16.2502 89.9126 15.6775 89.5365 14.9941 89.2685C14.3103 88.9791 13.7682 88.7038 13.368 88.0269C12.9791 86.6904 12.9281 85.272 12.8523 83.8836C12.7885 82.7195 12.6582 81.5685 12.517 80.4124C12.4793 80.1012 12.4432 79.7899 12.4077 79.4784C12.2986 78.5201 12.1839 77.5629 12.0608 76.6065C11.9134 75.4487 11.7895 74.289 11.6699 73.1277C11.6323 72.7669 11.5933 72.4064 11.5539 72.0458C11.436 70.9574 11.3255 69.8737 11.2656 68.7796C11.1193 66.4253 10.5035 64.8706 9.25334 62.9253C8.88374 62.339 8.55638 61.7297 8.22784 61.1171C8.09784 60.8787 7.96767 60.6403 7.83734 60.4021C7.76953 60.2778 7.70173 60.1535 7.63187 60.0254C7.38592 59.5749 7.13941 59.1248 6.89286 58.6747C5.85077 56.7708 4.81838 54.8617 3.79607 52.9459C3.34706 52.1047 2.89584 51.2649 2.44292 50.4261C2.37193 50.2945 2.30095 50.1629 2.22781 50.0274C1.88052 49.3856 1.52963 48.7465 1.17151 48.1114C1.10412 47.9918 1.03672 47.8721 0.967286 47.7488C0.840865 47.5251 0.71379 47.3018 0.585934 47.0789C0.080727 46.186 0.080727 46.186 0 45.6468C0.113391 45.2252 0.237641 44.8295 0.383693 44.4208C0.445342 44.2425 0.445342 44.2425 0.508236 44.0605C0.640075 43.6802 0.774078 43.3007 0.90815 42.9213C0.99627 42.6682 1.08425 42.4151 1.17208 42.1619C1.44268 41.3836 1.71355 40.6052 1.99307 39.8304C2.32784 38.8998 2.63188 37.9587 2.93673 37.0168C3.05805 36.6432 3.1794 36.2696 3.30077 35.896C3.36452 35.6996 3.42826 35.5033 3.49201 35.3069C4.41288 32.4712 5.33566 29.6363 6.30256 26.8177C6.35708 26.6586 6.35708 26.6586 6.4127 26.4963C6.92855 24.9934 7.45845 23.4961 7.99172 22Z" fill="#0090A8"/>
<path d="M152.139 22C152.983 24.2358 153.716 26.5176 154.427 28.8042C154.614 29.4017 154.808 29.9887 155.036 30.5701C155.284 31.2104 155.495 31.8606 155.699 32.5182C156.213 34.1798 156.77 35.8256 157.324 37.4729C157.397 37.6908 157.47 37.9086 157.543 38.1264C157.579 38.2327 157.615 38.3391 157.651 38.4486C157.857 39.0631 158.055 39.6795 158.247 40.2989C158.624 41.5062 159.062 42.69 159.497 43.875C159.56 44.0508 159.623 44.2265 159.688 44.4076C159.745 44.5648 159.802 44.7219 159.861 44.8838C160.041 45.5461 160.079 46.0285 159.82 46.6688C159.742 46.8058 159.665 46.9428 159.585 47.084C159.498 47.2406 159.411 47.3972 159.321 47.5585C159.225 47.7257 159.13 47.893 159.031 48.0653C158.932 48.2427 158.833 48.4202 158.734 48.5978C158.528 48.9669 158.321 49.3354 158.114 49.7035C157.636 50.5533 157.172 51.4115 156.707 52.2687C155.928 53.6963 155.144 55.1204 154.357 56.543C153.644 57.8346 152.935 59.1292 152.231 60.4267C151.772 61.2698 151.309 62.1084 150.833 62.9405C150.693 63.1872 150.693 63.1872 150.55 63.4389C150.374 63.7492 150.196 64.0583 150.016 64.3662C149.936 64.507 149.857 64.6477 149.775 64.7927C149.705 64.9136 149.635 65.0346 149.563 65.1592C149.04 66.4276 148.993 67.8874 148.857 69.2481C148.836 69.4517 148.815 69.6554 148.794 69.8591C148.727 70.5022 148.662 71.1455 148.597 71.7889C148.512 72.6279 148.426 73.4668 148.339 74.3057C148.328 74.4095 148.318 74.5134 148.307 74.6204C148.126 76.3639 147.917 78.1022 147.69 79.8397C147.497 81.3131 147.342 82.7887 147.201 84.2684C147.171 84.5866 147.138 84.9046 147.102 85.2222C147.068 85.5745 147.045 85.9281 147.032 86.282C146.941 87.6572 146.941 87.6572 146.457 88.2436C146.044 88.5756 145.624 88.85 145.173 89.1209C144.937 89.2742 144.937 89.2742 144.697 89.4305C144.377 89.6378 144.056 89.8423 143.733 90.0438C143.204 90.3747 142.686 90.7213 142.169 91.0714C141.834 91.2978 141.497 91.5212 141.16 91.7439C140.529 92.1617 139.903 92.5883 139.279 93.0173C138.307 93.685 137.33 94.3448 136.345 94.9908C135.729 95.3969 135.129 95.8164 134.539 96.2646C134.415 96.3569 134.29 96.4492 134.162 96.5442C133.925 96.7199 133.692 96.8997 133.462 97.0845C132.759 97.6002 132.235 97.7477 131.376 97.733C131.281 97.7315 131.186 97.7301 131.088 97.7286C130.065 97.7079 129.045 97.6349 128.024 97.5542C127.819 97.5386 127.614 97.5231 127.409 97.5076C126.975 97.4747 126.54 97.4414 126.106 97.4076C125.419 97.3541 124.731 97.3017 124.044 97.2496C123.34 97.1961 122.636 97.1426 121.931 97.0887C119.753 96.9221 117.574 96.7636 115.395 96.6065C111.647 96.3359 111.647 96.3359 109.878 96.1945C109.756 96.1847 109.634 96.1749 109.508 96.1648C109.327 96.1504 109.327 96.1504 109.143 96.1357C108.905 96.1167 108.667 96.0977 108.429 96.0787C108.315 96.0695 108.2 96.0604 108.082 96.051C105.509 95.8469 102.934 95.6975 100.357 95.5511C100.198 95.542 100.039 95.5328 99.8743 95.5234C99.5768 95.5063 99.2792 95.4896 98.9817 95.4732C97.9395 95.4134 96.9027 95.3255 95.8685 95.1748C94.8358 95.0841 94.2118 95.324 93.3768 95.9137C93.2263 96.0166 93.2263 96.0166 93.0728 96.1216C92.7565 96.3387 92.4422 96.5587 92.1281 96.7793C91.9297 96.9171 91.7312 97.0549 91.5328 97.1926C90.936 97.6082 90.3422 98.0284 89.7487 98.4491C89.5387 98.5976 89.3286 98.7461 89.1185 98.8946C88.7089 99.184 88.2994 99.4736 87.8901 99.7633C87.1694 100.273 86.4476 100.782 85.7256 101.29C85.5241 101.432 85.3226 101.574 85.1211 101.716C84.988 101.81 84.8548 101.903 84.7176 102C84.5086 101.337 84.7575 100.849 84.9685 100.216C85.0119 100.082 85.0553 99.9484 85.1001 99.8105C85.2438 99.369 85.3893 98.9283 85.5349 98.4875C85.6353 98.1804 85.7357 97.8733 85.8359 97.5661C86.1393 96.6377 86.4454 95.7104 86.7518 94.7831C86.8397 94.5168 86.9275 94.2505 87.0153 93.9842C87.6872 91.9486 88.3647 89.9151 89.0523 87.8853C89.7193 85.9151 90.3737 83.9414 91.0004 81.9564C91.0738 81.7241 91.1475 81.4918 91.2213 81.2595C91.5953 80.0836 91.9613 78.907 92.2909 77.7162C92.4233 77.2387 92.5593 76.7625 92.6954 76.2863C92.7581 76.0622 92.8188 75.8375 92.8773 75.6122C93.2944 74.0062 93.8638 73.1527 95.1795 72.2111C95.3739 72.0481 95.5667 71.883 95.7573 71.7151C95.8443 71.6405 95.9314 71.566 96.021 71.4892C97.7623 69.9978 99.4977 68.499 101.205 66.9645C101.815 66.4175 102.433 65.8828 103.053 65.3493C103.508 64.9541 103.958 64.5527 104.406 64.1497C105.371 63.284 106.349 62.4371 107.332 61.5951C108.175 60.8707 109.004 60.1305 109.827 59.3811C110.468 58.7983 111.12 58.2299 111.776 57.6664C112.23 57.2734 112.678 56.8736 113.125 56.4722C113.698 55.9571 114.275 55.4476 114.859 54.9463C115.476 54.4157 116.082 53.873 116.684 53.3244C117.413 52.6611 118.15 52.0114 118.896 51.3708C119.35 50.9778 119.798 50.578 120.244 50.1766C120.949 49.5438 121.661 48.9221 122.379 48.3052C122.915 47.8389 123.444 47.3636 123.974 46.8881C124.467 46.446 124.964 46.0104 125.466 45.5797C126.173 44.972 126.864 44.347 127.554 43.7185C128.067 43.2531 128.583 42.7954 129.108 42.3455C129.893 41.6718 130.659 40.977 131.425 40.2804C132.481 39.3214 133.541 38.3691 134.62 37.4415C135.408 36.7635 136.179 36.0652 136.949 35.3649C137.51 34.8551 138.075 34.3505 138.64 33.8464C139.225 33.3239 139.807 32.7968 140.387 32.2687C140.992 31.7188 141.602 31.1775 142.222 30.6468C142.731 30.2097 143.225 29.7607 143.711 29.2937C144.325 28.703 144.96 28.1467 145.605 27.5944C146.63 26.7065 147.628 25.7848 148.628 24.8653C151.743 22 151.743 22 152.139 22Z" fill="#0090A8"/>
<path d="M142.113 58.3915C142.295 58.971 142.199 59.2639 142.07 59.8575C142.049 59.957 142.027 60.0566 142.005 60.1591C141.959 60.3709 141.913 60.5826 141.866 60.7941C141.797 61.1092 141.728 61.4247 141.661 61.7403C141.397 62.9553 141.108 64.1602 140.8 65.3635C140.581 66.2264 140.374 67.0927 140.169 67.9597C140.125 68.1459 140.081 68.3322 140.036 68.5241C139.724 69.8515 139.429 71.1822 139.142 72.5158C138.695 74.5787 138.213 76.6326 137.735 78.6875C137.685 78.9037 137.685 78.9037 137.633 79.1242C137.568 79.406 137.501 79.6877 137.434 79.9692C137.295 80.5565 137.163 81.1375 137.077 81.7363C136.887 82.9544 136.887 82.9544 136.46 83.4055C136.093 83.6574 135.728 83.8472 135.329 84.0345C135.037 84.1865 134.746 84.3386 134.454 84.491C134.303 84.567 134.152 84.6431 133.996 84.7214C133.255 85.102 132.536 85.5248 131.814 85.9443C131.522 86.1117 131.23 86.2788 130.937 86.4458C130.193 86.8711 129.45 87.2976 128.707 87.7248C128.413 87.8932 128.118 88.0608 127.823 88.2276C127.149 88.6089 126.483 88.996 125.83 89.4148C125.713 89.4869 125.595 89.559 125.475 89.6333C125.264 89.7636 125.056 89.8983 124.851 90.0393C123.696 90.737 122.327 90.546 121.044 90.4837C120.91 90.4772 120.776 90.4708 120.639 90.4641C119.629 90.4123 118.62 90.3437 117.611 90.2725C117.299 90.2512 116.988 90.2299 116.676 90.2087C114.595 90.0655 112.515 89.9078 110.436 89.7159C109.876 89.6642 109.316 89.613 108.756 89.5624C108.615 89.5496 108.474 89.5368 108.328 89.5236C107.214 89.4256 106.099 89.3524 104.983 89.2831C104.837 89.2741 104.837 89.2741 104.688 89.2649C104.591 89.2589 104.495 89.2529 104.395 89.2467C102.189 89.1083 99.9928 88.8831 97.7949 88.6411C98.0019 88.0561 98.2569 87.5287 98.551 86.9874C98.6445 86.8147 98.7381 86.642 98.8345 86.464C98.936 86.278 99.0375 86.0919 99.139 85.9059C99.2434 85.7138 99.3479 85.5217 99.4523 85.3296C99.7708 84.7438 100.091 84.1588 100.41 83.5739C100.508 83.3956 100.605 83.2174 100.702 83.0392C100.971 82.5485 101.24 82.0582 101.509 81.5681C101.589 81.4234 101.668 81.2786 101.75 81.1295C101.903 80.8523 102.057 80.576 102.214 80.3008C102.373 80.0173 102.525 79.7299 102.673 79.4396C103.289 78.2914 103.907 77.8223 105.051 77.3263C105.328 77.1981 105.605 77.0695 105.881 76.9406C106.028 76.8739 106.174 76.8071 106.324 76.7384C106.866 76.481 107.395 76.2035 107.925 75.9203C109.018 75.3364 110.122 74.7826 111.233 74.2361C112.883 73.4229 114.526 72.5961 116.151 71.7277C117.017 71.2658 117.888 70.8179 118.764 70.3781C120.981 69.2644 123.184 68.1212 125.39 66.9825C126.281 66.5222 127.174 66.0631 128.066 65.6048C130.352 64.4311 132.634 63.2513 134.904 62.0456C136.473 61.2139 138.055 60.4119 139.642 59.6199C139.769 59.5569 139.895 59.4938 140.025 59.4288C140.721 59.082 141.416 58.7362 142.113 58.3915Z" fill="#FDFEFE"/>
<path d="M17.873 58.3915C20.0296 59.3908 22.1379 60.4745 24.2392 61.5969C26.3906 62.7442 28.5497 63.8691 30.7264 64.9619C31.6269 65.4151 32.5236 65.8768 33.4206 66.3378C33.6318 66.4462 33.8431 66.5546 34.0543 66.663C35.3322 67.3193 36.6084 67.9791 37.8836 68.6411C41.6522 70.6002 41.6522 70.6002 45.4548 72.484C47.6133 73.5337 49.7392 74.6569 51.8704 75.767C52.1027 75.8878 52.1027 75.8878 52.3397 76.011C52.6434 76.1692 52.9467 76.3282 53.2497 76.4878C53.8786 76.8175 54.5032 77.139 55.157 77.4098C56.5768 78.0044 57.1746 78.7616 57.8407 80.1958C57.9361 80.3879 58.0323 80.5795 58.1291 80.7708C58.3253 81.1587 58.5189 81.5478 58.7111 81.9379C59.1276 82.7741 59.5955 83.5767 60.0657 84.38C60.1899 84.5944 60.1899 84.5944 60.3167 84.8132C60.6997 85.4731 61.0867 86.1302 61.4779 86.7847C61.5465 86.8997 61.6152 87.0148 61.686 87.1333C61.8127 87.345 61.9402 87.5563 62.0684 87.767C62.4814 88.4541 62.4814 88.4541 62.4814 88.7946C62.3183 88.8037 62.3183 88.8037 62.1519 88.8131C59.7331 88.9515 57.32 89.1285 54.9067 89.3504C51.5021 89.6635 48.0953 89.9013 44.6842 90.1159C44.3081 90.1397 43.9321 90.1635 43.5561 90.1874C43.3749 90.1988 43.1937 90.2103 43.0069 90.2221C41.6521 90.3099 40.2995 90.4177 38.9473 90.5427C36.6682 90.7482 36.6682 90.7482 35.763 90.2372C35.607 90.1504 35.4509 90.0637 35.2902 89.9744C35.1257 89.8796 34.9613 89.7848 34.7919 89.6871C34.6172 89.5887 34.4424 89.4904 34.2675 89.3924C33.0326 88.6963 31.8137 87.9699 30.5996 87.2343C29.5644 86.6095 28.5136 86.0224 27.454 85.4453C27.1507 85.279 26.8474 85.1126 26.5442 84.9462C26.1534 84.7319 25.7626 84.5182 25.3695 84.3086C25.0787 84.1535 24.7905 83.994 24.5025 83.833C24.2761 83.7104 24.2761 83.7104 24.0451 83.5853C23.552 83.1489 23.4167 82.6722 23.2493 82.0384C23.2116 81.8978 23.174 81.7572 23.1352 81.6124C23.0078 81.119 22.8872 80.6242 22.768 80.1286C22.7287 79.9686 22.6895 79.8085 22.6491 79.6436C22.3656 78.4777 22.0991 77.3078 21.8349 76.1369C21.5 74.6542 21.1545 73.1746 20.8024 71.6965C20.7534 71.4908 20.7045 71.285 20.6555 71.0793C20.4566 70.2439 20.2575 69.4085 20.0576 68.5734C19.5031 66.2553 18.9627 63.9349 18.4628 61.6029C18.441 61.502 18.4193 61.4011 18.3969 61.2972C18.3354 61.0109 18.2746 60.7244 18.2139 60.4379C18.1795 60.2757 18.1451 60.1136 18.1096 59.9465C18.0115 59.4301 17.9392 58.9135 17.873 58.3915Z" fill="#FDFEFE"/>
</g>
<defs>
<clipPath id="clip0_1942_11708">
<rect width="160" height="80" fill="white" transform="translate(0 22)"/>
</clipPath>
</defs>
</svg>
